<?xml version="1.0" standalone="no"?>
<!DOCTYPE svg PUBLIC "-//W3C//DTD SVG 20010904//EN"
 "http://www.w3.org/TR/2001/REC-SVG-20010904/DTD/svg10.dtd">
<svg version="1.0" xmlns="http://www.w3.org/2000/svg"
 width="64.000000pt" height="64.000000pt" viewBox="0 0 64.000000 64.000000"
 preserveAspectRatio="xMidYMid meet">

<g transform="translate(0.000000,64.000000) scale(0.100000,-0.100000)"
fill="#000000" stroke="none">
<path d="M168 520 c-75 -38 -139 -74 -143 -80 -4 -6 6 -10 24 -10 26 0 31 -4
31 -25 l0 -25 238 2 237 3 3 23 c3 17 10 22 33 22 18 0 28 4 24 10 -8 14 -281
150 -297 149 -7 0 -75 -31 -150 -69z m277 -2 c69 -35 125 -66 125 -70 0 -4
-112 -7 -250 -7 -137 0 -250 4 -250 8 0 13 27 21 78 23 41 1 43 2 12 6 -34 4
-33 5 60 52 52 27 96 49 97 49 2 1 59 -27 128 -61z"/>
<path d="M289 524 c-17 -21 0 -49 31 -49 31 0 48 28 31 49 -8 9 -21 16 -31 16
-10 0 -23 -7 -31 -16z m49 -16 c-2 -13 -10 -23 -18 -23 -8 0 -16 10 -18 23 -3
17 2 22 18 22 16 0 21 -5 18 -22z"/>
<path d="M146 344 c-12 -12 -16 -36 -16 -100 0 -49 -4 -84 -10 -84 -5 0 -10
-11 -10 -25 0 -18 -5 -25 -20 -25 -15 0 -20 -7 -20 -25 0 -20 -5 -25 -26 -25
-14 0 -23 -4 -19 -10 8 -14 582 -14 590 0 4 6 -5 10 -19 10 -21 0 -26 5 -26
25 0 18 -5 25 -20 25 -15 0 -20 7 -20 25 0 14 -4 25 -10 25 -6 0 -10 35 -10
84 0 64 -4 88 -16 100 -8 9 -19 16 -24 16 -5 0 -16 -7 -24 -16 -12 -12 -16
-36 -16 -100 l0 -84 -35 0 -35 0 0 84 c0 64 -4 88 -16 100 -8 9 -19 16 -24 16
-5 0 -16 -7 -24 -16 -12 -12 -16 -36 -16 -100 l0 -84 -35 0 -35 0 0 84 c0 64
-4 88 -16 100 -8 9 -19 16 -24 16 -5 0 -16 -7 -24 -16z m44 -94 c0 -83 -1 -90
-20 -90 -19 0 -20 7 -20 90 0 83 1 90 20 90 19 0 20 -7 20 -90z m150 0 c0 -83
-1 -90 -20 -90 -19 0 -20 7 -20 90 0 83 1 90 20 90 19 0 20 -7 20 -90z m150 0
c0 -83 -1 -90 -20 -90 -19 0 -20 7 -20 90 0 83 1 90 20 90 19 0 20 -7 20 -90z
m30 -125 c0 -13 -29 -15 -200 -15 -171 0 -200 2 -200 15 0 13 29 15 200 15
171 0 200 -2 200 -15z"/>
</g>
</svg>
